<?xml version="1.0" encoding="UTF-8" standalone="no"?>
<svg xmlns="http://www.w3.org/2000/svg" width="600" height="500" viewBox="0 0 600 500">
  <!-- Title -->
  <text x="300" y="35" text-anchor="middle" font-size="18" font-weight="bold" font-family="Arial, sans-serif">API-Enabled Mainframe Pattern</text>
  <text x="300" y="55" text-anchor="middle" font-size="14" font-family="Arial, sans-serif">Exposing mainframe functionality through modern APIs</text>
  
  <!-- Modern UI Layer -->
  <rect x="100" y="80" width="400" height="80" rx="10" ry="10" fill="#6BBD6B" fill-opacity="0.7" stroke="#333" stroke-width="1.5" />
  <text x="300" y="110" text-anchor="middle" font-size="15" font-weight="bold" font-family="Arial, sans-serif">Modern User Interfaces</text>
  
  <rect x="130" y="130" width="80" height="30" rx="5" ry="5" fill="#107C10" stroke="#333" stroke-width="1.5" />
  <text x="170" y="150" text-anchor="middle" font-size="12" font-family="Arial, sans-serif" fill="#fff">Web App</text>
  
  <rect x="260" y="130" width="80" height="30" rx="5" ry="5" fill="#107C10" stroke="#333" stroke-width="1.5" />
  <text x="300" y="150" text-anchor="middle" font-size="12" font-family="Arial, sans-serif" fill="#fff">Mobile App</text>
  
  <rect x="390" y="130" width="80" height="30" rx="5" ry="5" fill="#107C10" stroke="#333" stroke-width="1.5" />
  <text x="430" y="150" text-anchor="middle" font-size="12" font-family="Arial, sans-serif" fill="#fff">Portal</text>
  
  <!-- API Management Layer -->
  <rect x="100" y="200" width="400" height="100" rx="10" ry="10" fill="#50A0DB" fill-opacity="0.7" stroke="#333" stroke-width="1.5" />
  <text x="300" y="230" text-anchor="middle" font-size="15" font-weight="bold" font-family="Arial, sans-serif">Azure API Management</text>
  
  <rect x="150" y="250" width="80" height="30" rx="5" ry="5" fill="#0078D4" stroke="#333" stroke-width="1.5" />
  <text x="190" y="270" text-anchor="middle" font-size="12" font-family="Arial, sans-serif" fill="#fff">API Gateway</text>
  
  <rect x="260" y="250" width="80" height="30" rx="5" ry="5" fill="#0078D4" stroke="#333" stroke-width="1.5" />
  <text x="300" y="270" text-anchor="middle" font-size="12" font-family="Arial, sans-serif" fill="#fff">API Policies</text>
  
  <rect x="370" y="250" width="80" height="30" rx="5" ry="5" fill="#0078D4" stroke="#333" stroke-width="1.5" />
  <text x="410" y="270" text-anchor="middle" font-size="12" font-family="Arial, sans-serif" fill="#fff">Developer Portal</text>
  
  <!-- Integration Layer -->
  <rect x="100" y="340" width="400" height="80" rx="10" ry="10" fill="#B798CD" fill-opacity="0.7" stroke="#333" stroke-width="1.5" />
  <text x="300" y="370" text-anchor="middle" font-size="15" font-weight="bold" font-family="Arial, sans-serif">API Integration Layer</text>
  
  <rect x="130" y="390" width="80" height="30" rx="5" ry="5" fill="#8961AA" stroke="#333" stroke-width="1.5" />
  <text x="170" y="410" text-anchor="middle" font-size="12" font-family="Arial, sans-serif" fill="#fff">z/OS Connect</text>
  
  <rect x="260" y="390" width="80" height="30" rx="5" ry="5" fill="#8961AA" stroke="#333" stroke-width="1.5" />
  <text x="300" y="410" text-anchor="middle" font-size="12" font-family="Arial, sans-serif" fill="#fff">Logic Apps</text>
  
  <rect x="390" y="390" width="80" height="30" rx="5" ry="5" fill="#8961AA" stroke="#333" stroke-width="1.5" />
  <text x="430" y="410" text-anchor="middle" font-size="12" font-family="Arial, sans-serif" fill="#fff">Data Factory</text>
  
  <!-- Mainframe Layer -->
  <rect x="150" y="460" width="300" height="30" rx="5" ry="5" fill="#0050C5" stroke="#333" stroke-width="1.5" />
  <text x="300" y="480" text-anchor="middle" font-size="12" font-family="Arial, sans-serif" fill="#fff">IBM z/OS Mainframe Applications</text>
  
  <!-- Flow Lines -->
  <path d="M170,160 L170,200" stroke="#333" stroke-width="2" fill="none" />
  <path d="M300,160 L300,200" stroke="#333" stroke-width="2" fill="none" />
  <path d="M430,160 L430,200" stroke="#333" stroke-width="2" fill="none" />
  
  <path d="M170,280 L170,340" stroke="#333" stroke-width="2" fill="none" />
  <path d="M300,280 L300,340" stroke="#333" stroke-width="2" fill="none" />
  <path d="M430,280 L430,340" stroke="#333" stroke-width="2" fill="none" />
  
  <path d="M170,420 L170,450 L300,450 L300,460" stroke="#333" stroke-width="2" fill="none" />
  <path d="M300,420 L300,460" stroke="#333" stroke-width="2" fill="none" />
  <path d="M430,420 L430,450 L300,450" stroke="#333" stroke-width="2" fill="none" />
  
  <!-- Key Benefits -->
  <rect x="50" y="170" width="30" height="120" rx="5" ry="5" fill="#E5E7EB" stroke="#333" stroke-width="1.5" />
  <text x="65" y="230" text-anchor="middle" font-size="12" font-family="Arial, sans-serif" fill="#333" transform="rotate(-90 65,230)">Modern UI, Legacy Backend</text>
  
  <rect x="520" y="170" width="30" height="120" rx="5" ry="5" fill="#E5E7EB" stroke="#333" stroke-width="1.5" />
  <text x="535" y="230" text-anchor="middle" font-size="12" font-family="Arial, sans-serif" fill="#333" transform="rotate(90 535,230)">Security, Scalability, Monitoring</text>
</svg> 