<?xml version="1.0" encoding="UTF-8" standalone="no"?>
<svg xmlns="http://www.w3.org/2000/svg" width="800" height="600" viewBox="0 0 800 600">
  <!-- Title -->
  <text x="400" y="40" text-anchor="middle" font-size="20" font-weight="bold" font-family="Arial, sans-serif">Azure AI Foundry for IBM z/OS Mainframe Modernization</text>
  
  <!-- Cloud Environment -->
  <rect x="100" y="70" width="600" height="280" rx="15" ry="15" fill="#f0f0ff" stroke="#3333cc" stroke-width="2" />
  <text x="400" y="95" text-anchor="middle" font-size="16" font-weight="bold" font-family="Arial, sans-serif" fill="#3333cc">Azure Cloud Environment</text>
  
  <!-- AI Foundry Platform -->
  <rect x="150" y="110" width="500" height="100" rx="10" ry="10" fill="#ccd9ff" stroke="#0066cc" stroke-width="2" />
  <text x="400" y="130" text-anchor="middle" font-size="14" font-weight="bold" font-family="Arial, sans-serif" fill="#0066cc">Azure AI Foundry</text>
  
  <!-- AI Foundry Components -->
  <rect x="170" y="145" width="100" height="50" rx="5" ry="5" fill="#0078D4" stroke="#005999" stroke-width="1.5" />
  <text x="220" y="175" text-anchor="middle" font-size="12" font-family="Arial, sans-serif" fill="white">Code Intelligence</text>
  
  <rect x="290" y="145" width="100" height="50" rx="5" ry="5" fill="#0078D4" stroke="#005999" stroke-width="1.5" />
  <text x="340" y="175" text-anchor="middle" font-size="12" font-family="Arial, sans-serif" fill="white">Translation Services</text>
  
  <rect x="410" y="145" width="100" height="50" rx="5" ry="5" fill="#0078D4" stroke="#005999" stroke-width="1.5" />
  <text x="460" y="175" text-anchor="middle" font-size="12" font-family="Arial, sans-serif" fill="white">Risk Intelligence</text>
  
  <rect x="530" y="145" width="100" height="50" rx="5" ry="5" fill="#0078D4" stroke="#005999" stroke-width="1.5" />
  <text x="580" y="175" text-anchor="middle" font-size="12" font-family="Arial, sans-serif" fill="white">Operational Intelligence</text>
  
  <!-- DevOps Integration -->
  <rect x="150" y="225" width="230" height="100" rx="10" ry="10" fill="#d0f0d0" stroke="#008000" stroke-width="2" />
  <text x="265" y="245" text-anchor="middle" font-size="14" font-weight="bold" font-family="Arial, sans-serif" fill="#008000">GitHub Integration</text>
  
  <rect x="170" y="260" width="90" height="40" rx="5" ry="5" fill="#107C10" stroke="#005500" stroke-width="1.5" />
  <text x="215" y="282" text-anchor="middle" font-size="11" font-family="Arial, sans-serif" fill="white">Source Control</text>
  
  <rect x="270" y="260" width="90" height="40" rx="5" ry="5" fill="#107C10" stroke="#005500" stroke-width="1.5" />
  <text x="315" y="282" text-anchor="middle" font-size="11" font-family="Arial, sans-serif" fill="white">CI/CD Pipelines</text>
  
  <!-- Azure DevOps Integration -->
  <rect x="420" y="225" width="230" height="100" rx="10" ry="10" fill="#f0d0f0" stroke="#800080" stroke-width="2" />
  <text x="535" y="245" text-anchor="middle" font-size="14" font-weight="bold" font-family="Arial, sans-serif" fill="#800080">Azure DevOps Integration</text>
  
  <rect x="440" y="260" width="90" height="40" rx="5" ry="5" fill="#8961AA" stroke="#550055" stroke-width="1.5" />
  <text x="485" y="282" text-anchor="middle" font-size="11" font-family="Arial, sans-serif" fill="white">Work Management</text>
  
  <rect x="540" y="260" width="90" height="40" rx="5" ry="5" fill="#8961AA" stroke="#550055" stroke-width="1.5" />
  <text x="585" y="282" text-anchor="middle" font-size="11" font-family="Arial, sans-serif" fill="white">Release Management</text>
  
  <!-- Mainframe Environment -->
  <rect x="100" y="380" width="600" height="160" rx="15" ry="15" fill="#f0f8ff" stroke="#0050C5" stroke-width="2" />
  <text x="400" y="405" text-anchor="middle" font-size="16" font-weight="bold" font-family="Arial, sans-serif" fill="#0050C5">IBM z/OS Mainframe Environment</text>
  
  <!-- Mainframe Components -->
  <rect x="140" y="425" width="120" height="90" rx="8" ry="8" fill="#4D81BF" stroke="#0050C5" stroke-width="1.5" />
  <text x="200" y="450" text-anchor="middle" font-size="12" font-weight="bold" font-family="Arial, sans-serif" fill="white">Applications</text>
  <text x="200" y="470" text-anchor="middle" font-size="10" font-family="Arial, sans-serif" fill="white">COBOL, PL/I,</text>
  <text x="200" y="485" text-anchor="middle" font-size="10" font-family="Arial, sans-serif" fill="white">Assembler, JCL</text>
  
  <rect x="290" y="425" width="120" height="90" rx="8" ry="8" fill="#4D81BF" stroke="#0050C5" stroke-width="1.5" />
  <text x="350" y="450" text-anchor="middle" font-size="12" font-weight="bold" font-family="Arial, sans-serif" fill="white">Data</text>
  <text x="350" y="470" text-anchor="middle" font-size="10" font-family="Arial, sans-serif" fill="white">DB2, VSAM,</text>
  <text x="350" y="485" text-anchor="middle" font-size="10" font-family="Arial, sans-serif" fill="white">IMS, Physical Files</text>
  
  <rect x="440" y="425" width="120" height="90" rx="8" ry="8" fill="#4D81BF" stroke="#0050C5" stroke-width="1.5" />
  <text x="500" y="450" text-anchor="middle" font-size="12" font-weight="bold" font-family="Arial, sans-serif" fill="white">Transactions</text>
  <text x="500" y="470" text-anchor="middle" font-size="10" font-family="Arial, sans-serif" fill="white">CICS, IMS</text>
  <text x="500" y="485" text-anchor="middle" font-size="10" font-family="Arial, sans-serif" fill="white">Batch Processing</text>
  
  <rect x="590" y="425" width="80" height="90" rx="8" ry="8" fill="#4D81BF" stroke="#0050C5" stroke-width="1.5" />
  <text x="630" y="450" text-anchor="middle" font-size="12" font-weight="bold" font-family="Arial, sans-serif" fill="white">System</text>
  <text x="630" y="470" text-anchor="middle" font-size="10" font-family="Arial, sans-serif" fill="white">z/OS</text>
  <text x="630" y="485" text-anchor="middle" font-size="10" font-family="Arial, sans-serif" fill="white">Security</text>
  
  <!-- Modernized Applications -->
  <rect x="100" y="550" width="600" height="35" rx="5" ry="5" fill="#ecf0ff" stroke="#0066cc" stroke-width="2" />
  <text x="400" y="572" text-anchor="middle" font-size="14" font-weight="bold" font-family="Arial, sans-serif" fill="#0066cc">Modernized Applications and Services</text>
  
  <!-- Connection Lines -->
  <line x1="200" y1="195" x2="200" y2="425" stroke="#333" stroke-width="2" stroke-dasharray="5,3" />
  <line x1="350" y1="195" x2="350" y2="425" stroke="#333" stroke-width="2" stroke-dasharray="5,3" />
  <line x1="500" y1="195" x2="500" y2="425" stroke="#333" stroke-width="2" stroke-dasharray="5,3" />
  
  <line x1="265" y1="325" x2="265" y2="425" stroke="#008000" stroke-width="2" stroke-dasharray="5,3" />
  <line x1="535" y1="325" x2="535" y2="425" stroke="#800080" stroke-width="2" stroke-dasharray="5,3" />
  
  <line x1="400" y1="490" x2="400" y2="550" stroke="#0050C5" stroke-width="2" />
  
  <!-- Legend -->
  <rect x="640" y="10" width="20" height="15" fill="#0078D4" stroke="#333" stroke-width="1" />
  <text x="665" y="22" font-size="10" font-family="Arial, sans-serif">AI Components</text>
  
  <rect x="640" y="30" width="20" height="15" fill="#107C10" stroke="#333" stroke-width="1" />
  <text x="665" y="42" font-size="10" font-family="Arial, sans-serif">GitHub</text>
  
  <rect x="640" y="50" width="20" height="15" fill="#8961AA" stroke="#333" stroke-width="1" />
  <text x="665" y="62" font-size="10" font-family="Arial, sans-serif">Azure DevOps</text>
  
  <rect x="640" y="70" width="20" height="15" fill="#4D81BF" stroke="#333" stroke-width="1" />
  <text x="665" y="82" font-size="10" font-family="Arial, sans-serif">Mainframe</text>
</svg> 