<?xml version="1.0" encoding="UTF-8" standalone="no"?>
<svg xmlns="http://www.w3.org/2000/svg" width="800" height="600" viewBox="0 0 800 600">
  <!-- Title -->
  <text x="400" y="40" text-anchor="middle" font-size="20" font-weight="bold" font-family="Arial, sans-serif">Assessment Framework</text>
  <text x="400" y="65" text-anchor="middle" font-size="16" font-family="Arial, sans-serif">Azure AI Foundry for IBM z/OS Modernization</text>
  
  <!-- Main container -->
  <rect x="50" y="80" width="700" height="490" rx="10" ry="10" fill="#f5f5f5" stroke="#666666" stroke-width="2" />
  
  <!-- Assessment dimensions -->
  <rect x="100" y="120" width="600" height="80" rx="8" ry="8" fill="#ccd9ff" stroke="#0066cc" stroke-width="1.5" />
  <text x="400" y="155" text-anchor="middle" font-size="18" font-weight="bold" font-family="Arial, sans-serif" fill="#0066cc">Assessment Dimensions</text>
  <text x="400" y="180" text-anchor="middle" font-size="14" font-family="Arial, sans-serif" fill="#333333">Multi-dimensional approach for comprehensive mainframe application evaluation</text>
  
  <!-- Dimension boxes -->
  <rect x="110" y="220" width="180" height="160" rx="8" ry="8" fill="#e1f5fe" stroke="#0288d1" stroke-width="1.5" />
  <text x="200" y="245" text-anchor="middle" font-size="16" font-weight="bold" font-family="Arial, sans-serif" fill="#0288d1">Technical</text>
  
  <rect x="310" y="220" width="180" height="160" rx="8" ry="8" fill="#e8f5e9" stroke="#388e3c" stroke-width="1.5" />
  <text x="400" y="245" text-anchor="middle" font-size="16" font-weight="bold" font-family="Arial, sans-serif" fill="#388e3c">Business</text>
  
  <rect x="510" y="220" width="180" height="160" rx="8" ry="8" fill="#fff3e0" stroke="#f57c00" stroke-width="1.5" />
  <text x="600" y="245" text-anchor="middle" font-size="16" font-weight="bold" font-family="Arial, sans-serif" fill="#f57c00">Operational</text>
  
  <!-- Technical factors -->
  <rect x="125" y="260" width="150" height="30" rx="5" ry="5" fill="#29b6f6" stroke="#0288d1" stroke-width="1" />
  <text x="200" y="280" text-anchor="middle" font-size="12" font-family="Arial, sans-serif" fill="white">Code Complexity</text>
  
  <rect x="125" y="295" width="150" height="30" rx="5" ry="5" fill="#29b6f6" stroke="#0288d1" stroke-width="1" />
  <text x="200" y="315" text-anchor="middle" font-size="12" font-family="Arial, sans-serif" fill="white">Dependencies</text>
  
  <rect x="125" y="330" width="150" height="30" rx="5" ry="5" fill="#29b6f6" stroke="#0288d1" stroke-width="1" />
  <text x="200" y="350" text-anchor="middle" font-size="12" font-family="Arial, sans-serif" fill="white">Technical Debt</text>
  
  <!-- Business factors -->
  <rect x="325" y="260" width="150" height="30" rx="5" ry="5" fill="#66bb6a" stroke="#388e3c" stroke-width="1" />
  <text x="400" y="280" text-anchor="middle" font-size="12" font-family="Arial, sans-serif" fill="white">Business Value</text>
  
  <rect x="325" y="295" width="150" height="30" rx="5" ry="5" fill="#66bb6a" stroke="#388e3c" stroke-width="1" />
  <text x="400" y="315" text-anchor="middle" font-size="12" font-family="Arial, sans-serif" fill="white">Strategic Alignment</text>
  
  <rect x="325" y="330" width="150" height="30" rx="5" ry="5" fill="#66bb6a" stroke="#388e3c" stroke-width="1" />
  <text x="400" y="350" text-anchor="middle" font-size="12" font-family="Arial, sans-serif" fill="white">Cost Implications</text>
  
  <!-- Operational factors -->
  <rect x="525" y="260" width="150" height="30" rx="5" ry="5" fill="#ffa726" stroke="#f57c00" stroke-width="1" />
  <text x="600" y="280" text-anchor="middle" font-size="12" font-family="Arial, sans-serif" fill="white">Change Frequency</text>
  
  <rect x="525" y="295" width="150" height="30" rx="5" ry="5" fill="#ffa726" stroke="#f57c00" stroke-width="1" />
  <text x="600" y="315" text-anchor="middle" font-size="12" font-family="Arial, sans-serif" fill="white">Resource Availability</text>
  
  <rect x="525" y="330" width="150" height="30" rx="5" ry="5" fill="#ffa726" stroke="#f57c00" stroke-width="1" />
  <text x="600" y="350" text-anchor="middle" font-size="12" font-family="Arial, sans-serif" fill="white">Support Requirements</text>
  
  <!-- AI Analysis layer -->
  <rect x="110" y="400" width="580" height="120" rx="8" ry="8" fill="#e8eaf6" stroke="#3f51b5" stroke-width="1.5" />
  <text x="400" y="425" text-anchor="middle" font-size="16" font-weight="bold" font-family="Arial, sans-serif" fill="#3f51b5">AI-Powered Analysis</text>
  
  <!-- AI capabilities -->
  <rect x="125" y="450" width="160" height="50" rx="5" ry="5" fill="#7986cb" stroke="#3f51b5" stroke-width="1" />
  <text x="205" y="470" text-anchor="middle" font-size="12" font-family="Arial, sans-serif" fill="white">Automated Code Analysis</text>
  <text x="205" y="485" text-anchor="middle" font-size="10" font-family="Arial, sans-serif" fill="white">Pattern Recognition</text>
  
  <rect x="310" y="450" width="160" height="50" rx="5" ry="5" fill="#7986cb" stroke="#3f51b5" stroke-width="1" />
  <text x="390" y="470" text-anchor="middle" font-size="12" font-family="Arial, sans-serif" fill="white">Business Rule Extraction</text>
  <text x="390" y="485" text-anchor="middle" font-size="10" font-family="Arial, sans-serif" fill="white">Logic Identification</text>
  
  <rect x="495" y="450" width="160" height="50" rx="5" ry="5" fill="#7986cb" stroke="#3f51b5" stroke-width="1" />
  <text x="575" y="470" text-anchor="middle" font-size="12" font-family="Arial, sans-serif" fill="white">Risk Scoring Model</text>
  <text x="575" y="485" text-anchor="middle" font-size="10" font-family="Arial, sans-serif" fill="white">ML-based Recommendations</text>
  
  <!-- Decision outputs -->
  <rect x="100" y="540" width="600" height="50" rx="8" ry="8" fill="#f5f5f5" stroke="#673ab7" stroke-width="2" />
  <text x="400" y="565" text-anchor="middle" font-size="14" font-weight="bold" font-family="Arial, sans-serif" fill="#673ab7">Modernization Strategy Recommendations</text>
  <text x="400" y="585" text-anchor="middle" font-size="12" font-family="Arial, sans-serif" fill="#673ab7">(Rehost, Refactor, Rearchitect, Replace)</text>
  
  <!-- Flow arrows -->
  <line x1="200" y1="380" x2="200" y2="400" stroke="#666666" stroke-width="2" stroke-dasharray="5,3" />
  <line x1="400" y1="380" x2="400" y2="400" stroke="#666666" stroke-width="2" stroke-dasharray="5,3" />
  <line x1="600" y1="380" x2="600" y2="400" stroke="#666666" stroke-width="2" stroke-dasharray="5,3" />
  
  <line x1="200" y1="500" x2="200" y2="540" stroke="#666666" stroke-width="2" />
  <line x1="400" y1="500" x2="400" y2="540" stroke="#666666" stroke-width="2" />
  <line x1="600" y1="500" x2="600" y2="540" stroke="#666666" stroke-width="2" />
</svg> 