<?xml version="1.0" encoding="UTF-8" standalone="no"?>
<svg xmlns="http://www.w3.org/2000/svg" width="800" height="600" viewBox="0 0 800 600">
  <!-- Title -->
  <text x="400" y="40" text-anchor="middle" font-size="20" font-weight="bold" font-family="Arial, sans-serif">Governance Framework</text>
  <text x="400" y="65" text-anchor="middle" font-size="16" font-family="Arial, sans-serif">Azure AI Foundry for IBM z/OS Modernization</text>
  
  <!-- Main container -->
  <rect x="50" y="80" width="700" height="490" rx="10" ry="10" fill="#f5f5f5" stroke="#666" stroke-width="2" />
  
  <!-- Top Level Framework -->
  <rect x="100" y="100" width="600" height="80" rx="8" ry="8" fill="#e6e6fa" stroke="#8961aa" stroke-width="1.5" />
  <text x="400" y="135" text-anchor="middle" font-size="18" font-weight="bold" font-family="Arial, sans-serif" fill="#5c2d91">Mainframe Modernization Governance</text>
  <text x="400" y="160" text-anchor="middle" font-size="14" font-family="Arial, sans-serif" fill="#333">Integrated framework for managing risk, compliance, and delivery quality</text>
  
  <!-- Four Pillars -->
  <rect x="100" y="200" width="135" height="240" rx="8" ry="8" fill="#deeafc" stroke="#3373cc" stroke-width="1.5" />
  <text x="168" y="225" text-anchor="middle" font-size="16" font-weight="bold" font-family="Arial, sans-serif" fill="#2952a3">Strategy</text>
  
  <rect x="255" y="200" width="135" height="240" rx="8" ry="8" fill="#d4e8d5" stroke="#38761d" stroke-width="1.5" />
  <text x="323" y="225" text-anchor="middle" font-size="16" font-weight="bold" font-family="Arial, sans-serif" fill="#274e13">Organization</text>
  
  <rect x="410" y="200" width="135" height="240" rx="8" ry="8" fill="#fce5cd" stroke="#a64d00" stroke-width="1.5" />
  <text x="478" y="225" text-anchor="middle" font-size="16" font-weight="bold" font-family="Arial, sans-serif" fill="#783f04">Process</text>
  
  <rect x="565" y="200" width="135" height="240" rx="8" ry="8" fill="#f5f5f5" stroke="#666666" stroke-width="1.5" />
  <text x="633" y="225" text-anchor="middle" font-size="16" font-weight="bold" font-family="Arial, sans-serif" fill="#333">Technology</text>
  
  <!-- Strategy Items -->
  <rect x="110" y="245" width="115" height="35" rx="5" ry="5" fill="#4285f4" stroke="#2952a3" stroke-width="1" />
  <text x="168" y="267" text-anchor="middle" font-size="12" font-family="Arial, sans-serif" fill="white">Vision & Roadmap</text>
  
  <rect x="110" y="290" width="115" height="35" rx="5" ry="5" fill="#4285f4" stroke="#2952a3" stroke-width="1" />
  <text x="168" y="312" text-anchor="middle" font-size="12" font-family="Arial, sans-serif" fill="white">Business Alignment</text>
  
  <rect x="110" y="335" width="115" height="35" rx="5" ry="5" fill="#4285f4" stroke="#2952a3" stroke-width="1" />
  <text x="168" y="357" text-anchor="middle" font-size="12" font-family="Arial, sans-serif" fill="white">Portfolio Management</text>
  
  <rect x="110" y="380" width="115" height="35" rx="5" ry="5" fill="#4285f4" stroke="#2952a3" stroke-width="1" />
  <text x="168" y="402" text-anchor="middle" font-size="12" font-family="Arial, sans-serif" fill="white">Risk Framework</text>
  
  <!-- Organization Items -->
  <rect x="265" y="245" width="115" height="35" rx="5" ry="5" fill="#57bb8a" stroke="#274e13" stroke-width="1" />
  <text x="323" y="267" text-anchor="middle" font-size="12" font-family="Arial, sans-serif" fill="white">Center of Excellence</text>
  
  <rect x="265" y="290" width="115" height="35" rx="5" ry="5" fill="#57bb8a" stroke="#274e13" stroke-width="1" />
  <text x="323" y="312" text-anchor="middle" font-size="12" font-family="Arial, sans-serif" fill="white">Skills Development</text>
  
  <rect x="265" y="335" width="115" height="35" rx="5" ry="5" fill="#57bb8a" stroke="#274e13" stroke-width="1" />
  <text x="323" y="357" text-anchor="middle" font-size="12" font-family="Arial, sans-serif" fill="white">Team Structure</text>
  
  <rect x="265" y="380" width="115" height="35" rx="5" ry="5" fill="#57bb8a" stroke="#274e13" stroke-width="1" />
  <text x="323" y="402" text-anchor="middle" font-size="12" font-family="Arial, sans-serif" fill="white">Change Management</text>
  
  <!-- Process Items -->
  <rect x="420" y="245" width="115" height="35" rx="5" ry="5" fill="#f4b183" stroke="#783f04" stroke-width="1" />
  <text x="478" y="267" text-anchor="middle" font-size="12" font-family="Arial, sans-serif" fill="white">DevOps Pipeline</text>
  
  <rect x="420" y="290" width="115" height="35" rx="5" ry="5" fill="#f4b183" stroke="#783f04" stroke-width="1" />
  <text x="478" y="312" text-anchor="middle" font-size="12" font-family="Arial, sans-serif" fill="white">Quality Assurance</text>
  
  <rect x="420" y="335" width="115" height="35" rx="5" ry="5" fill="#f4b183" stroke="#783f04" stroke-width="1" />
  <text x="478" y="357" text-anchor="middle" font-size="12" font-family="Arial, sans-serif" fill="white">Compliance</text>
  
  <rect x="420" y="380" width="115" height="35" rx="5" ry="5" fill="#f4b183" stroke="#783f04" stroke-width="1" />
  <text x="478" y="402" text-anchor="middle" font-size="12" font-family="Arial, sans-serif" fill="white">Security Reviews</text>
  
  <!-- Technology Items -->
  <rect x="575" y="245" width="115" height="35" rx="5" ry="5" fill="#8c8c8c" stroke="#333" stroke-width="1" />
  <text x="633" y="267" text-anchor="middle" font-size="12" font-family="Arial, sans-serif" fill="white">AI Tooling</text>
  
  <rect x="575" y="290" width="115" height="35" rx="5" ry="5" fill="#8c8c8c" stroke="#333" stroke-width="1" />
  <text x="633" y="312" text-anchor="middle" font-size="12" font-family="Arial, sans-serif" fill="white">Technical Standards</text>
  
  <rect x="575" y="335" width="115" height="35" rx="5" ry="5" fill="#8c8c8c" stroke="#333" stroke-width="1" />
  <text x="633" y="357" text-anchor="middle" font-size="12" font-family="Arial, sans-serif" fill="white">Integration Points</text>
  
  <rect x="575" y="380" width="115" height="35" rx="5" ry="5" fill="#8c8c8c" stroke="#333" stroke-width="1" />
  <text x="633" y="402" text-anchor="middle" font-size="12" font-family="Arial, sans-serif" fill="white">Architecture Review</text>
  
  <!-- AI Governance -->
  <rect x="100" y="460" width="600" height="90" rx="8" ry="8" fill="#e8eaf6" stroke="#3f51b5" stroke-width="1.5" />
  <text x="400" y="485" text-anchor="middle" font-size="16" font-weight="bold" font-family="Arial, sans-serif" fill="#3f51b5">AI Governance Controls</text>
  
  <!-- AI Controls -->
  <rect x="120" y="500" width="130" height="35" rx="5" ry="5" fill="#7986cb" stroke="#3f51b5" stroke-width="1" />
  <text x="185" y="522" text-anchor="middle" font-size="12" font-family="Arial, sans-serif" fill="white">Ethical AI Usage</text>
  
  <rect x="265" y="500" width="130" height="35" rx="5" ry="5" fill="#7986cb" stroke="#3f51b5" stroke-width="1" />
  <text x="330" y="522" text-anchor="middle" font-size="12" font-family="Arial, sans-serif" fill="white">Model Validation</text>
  
  <rect x="410" y="500" width="130" height="35" rx="5" ry="5" fill="#7986cb" stroke="#3f51b5" stroke-width="1" />
  <text x="475" y="522" text-anchor="middle" font-size="12" font-family="Arial, sans-serif" fill="white">Bias Detection</text>
  
  <rect x="555" y="500" width="130" height="35" rx="5" ry="5" fill="#7986cb" stroke="#3f51b5" stroke-width="1" />
  <text x="620" y="522" text-anchor="middle" font-size="12" font-family="Arial, sans-serif" fill="white">Explainability</text>
</svg> 