<?xml version="1.0" encoding="UTF-8" standalone="no"?>
<svg xmlns="http://www.w3.org/2000/svg" width="800" height="600" viewBox="0 0 800 600">
  <!-- Title -->
  <text x="400" y="40" text-anchor="middle" font-size="20" font-weight="bold" font-family="Arial, sans-serif">Inventory Architecture</text>
  <text x="400" y="65" text-anchor="middle" font-size="16" font-family="Arial, sans-serif">Azure AI Foundry for IBM z/OS Modernization</text>
  
  <!-- Main container -->
  <rect x="50" y="80" width="700" height="490" rx="10" ry="10" fill="#f5f5f5" stroke="#666" stroke-width="2" />
  
  <!-- IBM z/OS Environment -->
  <rect x="100" y="390" width="600" height="160" rx="8" ry="8" fill="#f0f8ff" stroke="#0050C5" stroke-width="1.5" />
  <text x="400" y="410" text-anchor="middle" font-size="16" font-weight="bold" font-family="Arial, sans-serif" fill="#0050C5">IBM z/OS Mainframe Environment</text>
  
  <!-- Mainframe Components -->
  <rect x="120" y="425" width="130" height="110" rx="5" ry="5" fill="#4D81BF" stroke="#0050C5" stroke-width="1" />
  <text x="185" y="445" text-anchor="middle" font-size="12" font-weight="bold" font-family="Arial, sans-serif" fill="white">Sources</text>
  
  <rect x="130" y="460" width="110" height="25" rx="3" ry="3" fill="#7fa8d7" stroke="#0050C5" stroke-width="1" />
  <text x="185" y="477" text-anchor="middle" font-size="10" font-family="Arial, sans-serif" fill="white">COBOL Programs</text>
  
  <rect x="130" y="490" width="110" height="25" rx="3" ry="3" fill="#7fa8d7" stroke="#0050C5" stroke-width="1" />
  <text x="185" y="507" text-anchor="middle" font-size="10" font-family="Arial, sans-serif" fill="white">PL/I Programs</text>
  
  <rect x="130" y="520" width="110" height="25" rx="3" ry="3" fill="#7fa8d7" stroke="#0050C5" stroke-width="1" />
  <text x="185" y="537" text-anchor="middle" font-size="10" font-family="Arial, sans-serif" fill="white">JCL Procedures</text>
  
  <!-- Mainframe Data -->
  <rect x="270" y="425" width="130" height="110" rx="5" ry="5" fill="#4D81BF" stroke="#0050C5" stroke-width="1" />
  <text x="335" y="445" text-anchor="middle" font-size="12" font-weight="bold" font-family="Arial, sans-serif" fill="white">Data</text>
  
  <rect x="280" y="460" width="110" height="25" rx="3" ry="3" fill="#7fa8d7" stroke="#0050C5" stroke-width="1" />
  <text x="335" y="477" text-anchor="middle" font-size="10" font-family="Arial, sans-serif" fill="white">DB2 Systems</text>
  
  <rect x="280" y="490" width="110" height="25" rx="3" ry="3" fill="#7fa8d7" stroke="#0050C5" stroke-width="1" />
  <text x="335" y="507" text-anchor="middle" font-size="10" font-family="Arial, sans-serif" fill="white">VSAM Files</text>
  
  <rect x="280" y="520" width="110" height="25" rx="3" ry="3" fill="#7fa8d7" stroke="#0050C5" stroke-width="1" />
  <text x="335" y="537" text-anchor="middle" font-size="10" font-family="Arial, sans-serif" fill="white">IMS Databases</text>
  
  <!-- Mainframe Systems -->
  <rect x="420" y="425" width="130" height="110" rx="5" ry="5" fill="#4D81BF" stroke="#0050C5" stroke-width="1" />
  <text x="485" y="445" text-anchor="middle" font-size="12" font-weight="bold" font-family="Arial, sans-serif" fill="white">Systems</text>
  
  <rect x="430" y="460" width="110" height="25" rx="3" ry="3" fill="#7fa8d7" stroke="#0050C5" stroke-width="1" />
  <text x="485" y="477" text-anchor="middle" font-size="10" font-family="Arial, sans-serif" fill="white">CICS</text>
  
  <rect x="430" y="490" width="110" height="25" rx="3" ry="3" fill="#7fa8d7" stroke="#0050C5" stroke-width="1" />
  <text x="485" y="507" text-anchor="middle" font-size="10" font-family="Arial, sans-serif" fill="white">IMS TM</text>
  
  <rect x="430" y="520" width="110" height="25" rx="3" ry="3" fill="#7fa8d7" stroke="#0050C5" stroke-width="1" />
  <text x="485" y="537" text-anchor="middle" font-size="10" font-family="Arial, sans-serif" fill="white">Batch Systems</text>
  
  <!-- Mainframe Metadata -->
  <rect x="570" y="425" width="130" height="110" rx="5" ry="5" fill="#4D81BF" stroke="#0050C5" stroke-width="1" />
  <text x="635" y="445" text-anchor="middle" font-size="12" font-weight="bold" font-family="Arial, sans-serif" fill="white">Metadata</text>
  
  <rect x="580" y="460" width="110" height="25" rx="3" ry="3" fill="#7fa8d7" stroke="#0050C5" stroke-width="1" />
  <text x="635" y="477" text-anchor="middle" font-size="10" font-family="Arial, sans-serif" fill="white">Copybooks</text>
  
  <rect x="580" y="490" width="110" height="25" rx="3" ry="3" fill="#7fa8d7" stroke="#0050C5" stroke-width="1" />
  <text x="635" y="507" text-anchor="middle" font-size="10" font-family="Arial, sans-serif" fill="white">SYSGEN</text>
  
  <rect x="580" y="520" width="110" height="25" rx="3" ry="3" fill="#7fa8d7" stroke="#0050C5" stroke-width="1" />
  <text x="635" y="537" text-anchor="middle" font-size="10" font-family="Arial, sans-serif" fill="white">Catalogs</text>
  
  <!-- Inventory Agents -->
  <rect x="100" y="310" width="600" height="60" rx="8" ry="8" fill="#e1f5fe" stroke="#0288d1" stroke-width="1.5" />
  <text x="400" y="345" text-anchor="middle" font-size="14" font-weight="bold" font-family="Arial, sans-serif" fill="#0288d1">Inventory Collection Agents</text>
  
  <!-- Agents -->
  <rect x="120" y="325" width="120" height="30" rx="5" ry="5" fill="#29b6f6" stroke="#0288d1" stroke-width="1" />
  <text x="180" y="345" text-anchor="middle" font-size="10" font-family="Arial, sans-serif" fill="white">Source Scanners</text>
  
  <rect x="260" y="325" width="120" height="30" rx="5" ry="5" fill="#29b6f6" stroke="#0288d1" stroke-width="1" />
  <text x="320" y="345" text-anchor="middle" font-size="10" font-family="Arial, sans-serif" fill="white">Catalog Analyzers</text>
  
  <rect x="400" y="325" width="120" height="30" rx="5" ry="5" fill="#29b6f6" stroke="#0288d1" stroke-width="1" />
  <text x="460" y="345" text-anchor="middle" font-size="10" font-family="Arial, sans-serif" fill="white">System Connectors</text>
  
  <rect x="540" y="325" width="140" height="30" rx="5" ry="5" fill="#29b6f6" stroke="#0288d1" stroke-width="1" />
  <text x="610" y="345" text-anchor="middle" font-size="10" font-family="Arial, sans-serif" fill="white">Secure Data Extractors</text>
  
  <!-- Azure Cloud -->
  <rect x="100" y="120" width="600" height="170" rx="8" ry="8" fill="#f0f0ff" stroke="#3333cc" stroke-width="1.5" />
  <text x="400" y="140" text-anchor="middle" font-size="16" font-weight="bold" font-family="Arial, sans-serif" fill="#3333cc">Azure AI Foundry Inventory Services</text>
  
  <!-- Inventory Database -->
  <rect x="120" y="160" width="250" height="110" rx="5" ry="5" fill="#deeafc" stroke="#3373cc" stroke-width="1.5" />
  <text x="245" y="180" text-anchor="middle" font-size="14" font-weight="bold" font-family="Arial, sans-serif" fill="#3373cc">Inventory Repository</text>
  
  <rect x="135" y="195" width="100" height="30" rx="3" ry="3" fill="#4285f4" stroke="#2952a3" stroke-width="1" />
  <text x="185" y="215" text-anchor="middle" font-size="10" font-family="Arial, sans-serif" fill="white">Code Catalog</text>
  
  <rect x="255" y="195" width="100" height="30" rx="3" ry="3" fill="#4285f4" stroke="#2952a3" stroke-width="1" />
  <text x="305" y="215" text-anchor="middle" font-size="10" font-family="Arial, sans-serif" fill="white">Asset Database</text>
  
  <rect x="135" y="235" width="100" height="30" rx="3" ry="3" fill="#4285f4" stroke="#2952a3" stroke-width="1" />
  <text x="185" y="255" text-anchor="middle" font-size="10" font-family="Arial, sans-serif" fill="white">Dependency Graph</text>
  
  <rect x="255" y="235" width="100" height="30" rx="3" ry="3" fill="#4285f4" stroke="#2952a3" stroke-width="1" />
  <text x="305" y="255" text-anchor="middle" font-size="10" font-family="Arial, sans-serif" fill="white">Metadata Store</text>
  
  <!-- Analysis Services -->
  <rect x="430" y="160" width="250" height="110" rx="5" ry="5" fill="#e6e6fa" stroke="#8961aa" stroke-width="1.5" />
  <text x="555" y="180" text-anchor="middle" font-size="14" font-weight="bold" font-family="Arial, sans-serif" fill="#8961aa">Analysis Services</text>
  
  <rect x="445" y="195" width="100" height="30" rx="3" ry="3" fill="#8961aa" stroke="#5c2d91" stroke-width="1" />
  <text x="495" y="215" text-anchor="middle" font-size="10" font-family="Arial, sans-serif" fill="white">Code Intelligence</text>
  
  <rect x="565" y="195" width="100" height="30" rx="3" ry="3" fill="#8961aa" stroke="#5c2d91" stroke-width="1" />
  <text x="615" y="215" text-anchor="middle" font-size="10" font-family="Arial, sans-serif" fill="white">Data Flow Analysis</text>
  
  <rect x="445" y="235" width="100" height="30" rx="3" ry="3" fill="#8961aa" stroke="#5c2d91" stroke-width="1" />
  <text x="495" y="255" text-anchor="middle" font-size="10" font-family="Arial, sans-serif" fill="white">Complexity Metrics</text>
  
  <rect x="565" y="235" width="100" height="30" rx="3" ry="3" fill="#8961aa" stroke="#5c2d91" stroke-width="1" />
  <text x="615" y="255" text-anchor="middle" font-size="10" font-family="Arial, sans-serif" fill="white">Modernization Risk</text>
  
  <!-- Connection Lines -->
  <line x1="400" y1="270" x2="400" y2="310" stroke="#666" stroke-width="2" />
  <line x1="400" y1="370" x2="400" y2="390" stroke="#666" stroke-width="2" />
  
  <line x1="180" y1="360" x2="180" y2="425" stroke="#666" stroke-width="1.5" stroke-dasharray="5,3" />
  <line x1="320" y1="360" x2="320" y2="425" stroke="#666" stroke-width="1.5" stroke-dasharray="5,3" />
  <line x1="460" y1="360" x2="460" y2="425" stroke="#666" stroke-width="1.5" stroke-dasharray="5,3" />
  <line x1="610" y1="360" x2="610" y2="425" stroke="#666" stroke-width="1.5" stroke-dasharray="5,3" />
</svg> 