<?xml version="1.0" encoding="UTF-8" standalone="no"?>
<svg width="1100" height="800" xmlns="http://www.w3.org/2000/svg" xmlns:xlink="http://www.w3.org/1999/xlink">
  <style>
    .box {
      fill: #f0f6ff;
      stroke: #0078d4;
      stroke-width: 2;
      rx: 8;
      ry: 8;
    }
    .header {
      fill: #0078d4;
      stroke: #0078d4;
      stroke-width: 1;
      rx: 8;
      ry: 8;
    }
    .section-box {
      fill: #e6f0ff;
      stroke: #0078d4;
      stroke-width: 1.5;
      rx: 8;
      ry: 8;
    }
    .ibm-box {
      fill: #E6F0FF;
      stroke: #1976d2;
      stroke-width: 1.5;
      rx: 6;
      ry: 6;
    }
    .unisys-box {
      fill: #E6F7F7;
      stroke: #00838f;
      stroke-width: 1.5;
      rx: 6;
      ry: 6;
    }
    .bull-box {
      fill: #F7EFE6;
      stroke: #d38600;
      stroke-width: 1.5;
      rx: 6;
      ry: 6;
    }
    .nec-box {
      fill: #EFE6F7;
      stroke: #7b1fa2;
      stroke-width: 1.5;
      rx: 6;
      ry: 6;
    }
    .data-box {
      fill: #f0f6ff;
      stroke: #0078d4;
      stroke-width: 1;
      rx: 4;
      ry: 4;
    }
    .connector-box {
      fill: #e1f5fe;
      stroke: #039be5;
      stroke-width: 1.5;
      rx: 6;
      ry: 6;
    }
    .ibm-header {
      fill: #1976d2;
      stroke: #1976d2;
      stroke-width: 1;
      rx: 6;
      ry: 6;
    }
    .unisys-header {
      fill: #00838f;
      stroke: #00838f;
      stroke-width: 1;
      rx: 6;
      ry: 6;
    }
    .bull-header {
      fill: #d38600;
      stroke: #d38600;
      stroke-width: 1;
      rx: 6;
      ry: 6;
    }
    .nec-header {
      fill: #7b1fa2;
      stroke: #7b1fa2;
      stroke-width: 1;
      rx: 6;
      ry: 6;
    }
    .connector-line {
      stroke: #039be5;
      stroke-width: 1.5;
      stroke-dasharray: 5,3;
      fill: none;
    }
    .text-title {
      font-family: 'Segoe UI', Arial, sans-serif;
      font-size: 20px;
      font-weight: bold;
      fill: #333;
      text-anchor: middle;
    }
    .text-subtitle {
      font-family: 'Segoe UI', Arial, sans-serif;
      font-size: 16px;
      fill: #666;
      text-anchor: middle;
    }
    .header-text {
      font-family: 'Segoe UI', Arial, sans-serif;
      font-size: 16px;
      font-weight: bold;
      fill: white;
      text-anchor: middle;
    }
    .section-text {
      font-family: 'Segoe UI', Arial, sans-serif;
      font-size: 14px;
      font-weight: bold;
      fill: #0078d4;
      text-anchor: middle;
    }
    .box-text {
      font-family: 'Segoe UI', Arial, sans-serif;
      font-size: 12px;
      fill: #333;
      text-anchor: middle;
    }
    .connector-text {
      font-family: 'Segoe UI', Arial, sans-serif;
      font-size: 13px;
      font-weight: bold;
      fill: #0078d4;
      text-anchor: middle;
    }
  </style>
  
  <!-- Title -->
  <text x="550" y="45" class="text-title">Inventory Architecture v2.0</text>
  <text x="550" y="70" class="text-subtitle">Azure AI Foundry for Multi-Vendor Mainframe Modernization</text>
  
  <!-- Main Container -->
  <rect x="50" y="90" width="1000" height="680" class="box" />
  
  <!-- Azure AI Foundry Container -->
  <rect x="70" y="110" width="960" height="250" class="section-box" />
  <rect x="70" y="110" width="960" height="40" class="header" />
  <text x="550" y="135" class="header-text">Azure AI Foundry Inventory Services</text>
  
  <!-- Inventory Repository Section -->
  <rect x="90" y="160" width="450" height="180" class="section-box" />
  <text x="315" y="180" class="section-text">Inventory Repository</text>
  
  <!-- Repository Components -->
  <rect x="110" y="200" width="120" height="40" class="data-box" />
  <text x="170" y="223" class="box-text">Code Catalog</text>
  
  <rect x="250" y="200" width="120" height="40" class="data-box" />
  <text x="310" y="223" class="box-text">Asset Database</text>
  
  <rect x="390" y="200" width="120" height="40" class="data-box" />
  <text x="450" y="223" class="box-text">Data Dictionary</text>
  
  <rect x="110" y="260" width="120" height="40" class="data-box" />
  <text x="170" y="283" class="box-text">Dependency Graph</text>
  
  <rect x="250" y="260" width="120" height="40" class="data-box" />
  <text x="310" y="283" class="box-text">Metadata Store</text>
  
  <rect x="390" y="260" width="120" height="40" class="data-box" />
  <text x="450" y="283" class="box-text">Documentation Store</text>
  
  <!-- Analysis Services Section -->
  <rect x="560" y="160" width="450" height="180" class="section-box" />
  <text x="785" y="180" class="section-text">Analysis Services</text>
  
  <!-- Analysis Components -->
  <rect x="580" y="200" width="120" height="40" class="data-box" />
  <text x="640" y="223" class="box-text">Code Intelligence</text>
  
  <rect x="720" y="200" width="120" height="40" class="data-box" />
  <text x="780" y="223" class="box-text">Data Flow Analysis</text>
  
  <rect x="860" y="200" width="120" height="40" class="data-box" />
  <text x="920" y="223" class="box-text">Risk Assessment</text>
  
  <rect x="580" y="260" width="120" height="40" class="data-box" />
  <text x="640" y="283" class="box-text">Complexity Metrics</text>
  
  <rect x="720" y="260" width="120" height="40" class="data-box" />
  <text x="780" y="283" class="box-text">Modernization Risk</text>
  
  <rect x="860" y="260" width="120" height="40" class="data-box" />
  <text x="920" y="283" class="box-text">Technical Debt</text>
  
  <!-- Connectors Section -->
  <rect x="70" y="370" width="960" height="80" class="section-box" />
  <rect x="70" y="370" width="960" height="40" class="header" />
  <text x="550" y="395" class="header-text">Multi-Vendor Inventory Collectors</text>
  
  <!-- Connectors -->
  <rect x="135" y="420" width="120" height="30" class="connector-box" />
  <text x="195" y="440" class="connector-text">Source Scanners</text>
  
  <rect x="315" y="420" width="120" height="30" class="connector-box" />
  <text x="375" y="440" class="connector-text">Catalog Analyzers</text>
  
  <rect x="495" y="420" width="120" height="30" class="connector-box" />
  <text x="555" y="440" class="connector-text">System Connectors</text>
  
  <rect x="675" y="420" width="120" height="30" class="connector-box" />
  <text x="735" y="440" class="connector-text">Secure Data Extractors</text>
  
  <rect x="855" y="420" width="120" height="30" class="connector-box" />
  <text x="915" y="440" class="connector-text">Metadata Collectors</text>
  
  <!-- Connectors Lines -->
  <path d="M 195 420 L 195 340" class="connector-line" />
  <path d="M 375 420 L 375 340" class="connector-line" />
  <path d="M 555 420 L 555 340" class="connector-line" />
  <path d="M 735 420 L 735 340" class="connector-line" />
  <path d="M 915 420 L 915 340" class="connector-line" />
  
  <path d="M 195 450 L 195 480" class="connector-line" />
  <path d="M 375 450 L 375 480" class="connector-line" />
  <path d="M 555 450 L 555 480" class="connector-line" />
  <path d="M 735 450 L 735 480" class="connector-line" />
  <path d="M 915 450 L 915 480" class="connector-line" />
  
  <!-- Mainframe Environments -->
  <!-- IBM z/OS Environment -->
  <rect x="80" y="480" width="220" height="270" class="ibm-box" />
  <rect x="80" y="480" width="220" height="40" class="ibm-header" />
  <text x="190" y="505" class="header-text">IBM z/OS</text>
  
  <rect x="100" y="530" width="180" height="40" class="data-box" />
  <text x="190" y="553" class="box-text">COBOL Programs</text>
  
  <rect x="100" y="580" width="180" height="40" class="data-box" />
  <text x="190" y="603" class="box-text">PL/I Programs</text>
  
  <rect x="100" y="630" width="180" height="40" class="data-box" />
  <text x="190" y="653" class="box-text">JCL Procedures</text>
  
  <rect x="100" y="680" width="180" height="40" class="data-box" />
  <text x="190" y="703" class="box-text">DB2 & VSAM Data</text>
  
  <!-- Unisys ClearPath Environment -->
  <rect x="320" y="480" width="220" height="270" class="unisys-box" />
  <rect x="320" y="480" width="220" height="40" class="unisys-header" />
  <text x="430" y="505" class="header-text">Unisys ClearPath</text>
  
  <rect x="340" y="530" width="180" height="40" class="data-box" />
  <text x="430" y="553" class="box-text">COBOL-85 Programs</text>
  
  <rect x="340" y="580" width="180" height="40" class="data-box" />
  <text x="430" y="603" class="box-text">ALGOL Programs</text>
  
  <rect x="340" y="630" width="180" height="40" class="data-box" />
  <text x="430" y="653" class="box-text">WFL Jobs</text>
  
  <rect x="340" y="680" width="180" height="40" class="data-box" />
  <text x="430" y="703" class="box-text">DMSII Databases</text>
  
  <!-- Bull GCOS Environment -->
  <rect x="560" y="480" width="220" height="270" class="bull-box" />
  <rect x="560" y="480" width="220" height="40" class="bull-header" />
  <text x="670" y="505" class="header-text">Bull GCOS</text>
  
  <rect x="580" y="530" width="180" height="40" class="data-box" />
  <text x="670" y="553" class="box-text">COBOL-74 Programs</text>
  
  <rect x="580" y="580" width="180" height="40" class="data-box" />
  <text x="670" y="603" class="box-text">JCL Scripts</text>
  
  <rect x="580" y="630" width="180" height="40" class="data-box" />
  <text x="670" y="653" class="box-text">TDS/IDS Databases</text>
  
  <rect x="580" y="680" width="180" height="40" class="data-box" />
  <text x="670" y="703" class="box-text">UFAS Files</text>
  
  <!-- NEC ACOS Environment -->
  <rect x="800" y="480" width="220" height="270" class="nec-box" />
  <rect x="800" y="480" width="220" height="40" class="nec-header" />
  <text x="910" y="505" class="header-text">NEC ACOS</text>
  
  <rect x="820" y="530" width="180" height="40" class="data-box" />
  <text x="910" y="553" class="box-text">COBOL Programs</text>
  
  <rect x="820" y="580" width="180" height="40" class="data-box" />
  <text x="910" y="603" class="box-text">JCL Procedures</text>
  
  <rect x="820" y="630" width="180" height="40" class="data-box" />
  <text x="910" y="653" class="box-text">AIM Databases</text>
  
  <rect x="820" y="680" width="180" height="40" class="data-box" />
  <text x="910" y="703" class="box-text">VSP Files</text>
</svg> 