<?xml version="1.0" encoding="UTF-8"?>
<svg xmlns="http://www.w3.org/2000/svg" xmlns:xlink="http://www.w3.org/1999/xlink" width="800" height="600" viewBox="0 0 800 600">
  <!-- Title -->
  <text x="400" y="40" text-anchor="middle" font-size="20" font-weight="bold" font-family="Arial, sans-serif">Mainframe Modernization Strategy</text>
  <text x="400" y="65" text-anchor="middle" font-size="16" font-family="Arial, sans-serif">Azure AI Foundry Approach</text>
  
  <!-- Strategy Framework -->
  <rect x="50" y="90" width="700" height="480" rx="10" ry="10" fill="#f8f8f8" stroke="#666" stroke-width="2" />
  
  <!-- Rehost -->
  <rect x="80" y="130" width="150" height="400" rx="8" ry="8" fill="#deeafc" stroke="#3373cc" stroke-width="1.5" />
  <text x="155" y="155" text-anchor="middle" font-size="16" font-weight="bold" font-family="Arial, sans-serif" fill="#2952a3">Rehost</text>
  <text x="155" y="175" text-anchor="middle" font-size="12" font-family="Arial, sans-serif" fill="#2952a3">(Lift &amp; Shift)</text>
  
  <!-- Rehost Details -->
  <rect x="95" y="195" width="120" height="90" rx="5" ry="5" fill="#4285f4" stroke="#2952a3" stroke-width="1" />
  <text x="155" y="225" text-anchor="middle" font-size="12" font-family="Arial, sans-serif" fill="white">Mainframe</text>
  <text x="155" y="245" text-anchor="middle" font-size="12" font-family="Arial, sans-serif" fill="white">Emulation</text>
  <text x="155" y="265" text-anchor="middle" font-size="12" font-family="Arial, sans-serif" fill="white">Platform</text>
  
  <rect x="95" y="295" width="120" height="40" rx="5" ry="5" fill="#5c94f2" stroke="#2952a3" stroke-width="1" />
  <text x="155" y="320" text-anchor="middle" font-size="11" font-family="Arial, sans-serif" fill="white">Minimal Code Changes</text>
  
  <rect x="95" y="345" width="120" height="40" rx="5" ry="5" fill="#5c94f2" stroke="#2952a3" stroke-width="1" />
  <text x="155" y="370" text-anchor="middle" font-size="11" font-family="Arial, sans-serif" fill="white">Environment Simulation</text>
  
  <rect x="95" y="395" width="120" height="40" rx="5" ry="5" fill="#5c94f2" stroke="#2952a3" stroke-width="1" />
  <text x="155" y="420" text-anchor="middle" font-size="11" font-family="Arial, sans-serif" fill="white">Rapid Migration</text>
  
  <rect x="95" y="445" width="120" height="70" rx="5" ry="5" fill="#4285f4" stroke="#2952a3" stroke-width="1" />
  <text x="155" y="470" text-anchor="middle" font-size="11" font-family="Arial, sans-serif" fill="white">AI Analysis:</text>
  <text x="155" y="490" text-anchor="middle" font-size="11" font-family="Arial, sans-serif" fill="white">Environment Config</text>
  <text x="155" y="505" text-anchor="middle" font-size="11" font-family="Arial, sans-serif" fill="white">&amp; Compatibility</text>
  
  <!-- Refactor -->
  <rect x="250" y="130" width="150" height="400" rx="8" ry="8" fill="#d4e8d5" stroke="#38761d" stroke-width="1.5" />
  <text x="325" y="155" text-anchor="middle" font-size="16" font-weight="bold" font-family="Arial, sans-serif" fill="#274e13">Refactor</text>
  <text x="325" y="175" text-anchor="middle" font-size="12" font-family="Arial, sans-serif" fill="#274e13">(Code Transformation)</text>
  
  <!-- Refactor Details -->
  <rect x="265" y="195" width="120" height="90" rx="5" ry="5" fill="#57bb8a" stroke="#274e13" stroke-width="1" />
  <text x="325" y="225" text-anchor="middle" font-size="12" font-family="Arial, sans-serif" fill="white">Automated</text>
  <text x="325" y="245" text-anchor="middle" font-size="12" font-family="Arial, sans-serif" fill="white">Code</text>
  <text x="325" y="265" text-anchor="middle" font-size="12" font-family="Arial, sans-serif" fill="white">Conversion</text>
  
  <rect x="265" y="295" width="120" height="40" rx="5" ry="5" fill="#7cc69f" stroke="#274e13" stroke-width="1" />
  <text x="325" y="320" text-anchor="middle" font-size="11" font-family="Arial, sans-serif" fill="white">COBOL to Java/C#</text>
  
  <rect x="265" y="345" width="120" height="40" rx="5" ry="5" fill="#7cc69f" stroke="#274e13" stroke-width="1" />
  <text x="325" y="370" text-anchor="middle" font-size="11" font-family="Arial, sans-serif" fill="white">Business Logic Preserve</text>
  
  <rect x="265" y="395" width="120" height="40" rx="5" ry="5" fill="#7cc69f" stroke="#274e13" stroke-width="1" />
  <text x="325" y="420" text-anchor="middle" font-size="11" font-family="Arial, sans-serif" fill="white">Modern Environment</text>
  
  <rect x="265" y="445" width="120" height="70" rx="5" ry="5" fill="#57bb8a" stroke="#274e13" stroke-width="1" />
  <text x="325" y="470" text-anchor="middle" font-size="11" font-family="Arial, sans-serif" fill="white">AI Analysis:</text>
  <text x="325" y="490" text-anchor="middle" font-size="11" font-family="Arial, sans-serif" fill="white">Code Patterns</text>
  <text x="325" y="505" text-anchor="middle" font-size="11" font-family="Arial, sans-serif" fill="white">&amp; Logic Mapping</text>
  
  <!-- Rearchitect -->
  <rect x="420" y="130" width="150" height="400" rx="8" ry="8" fill="#fce5cd" stroke="#a64d00" stroke-width="1.5" />
  <text x="495" y="155" text-anchor="middle" font-size="16" font-weight="bold" font-family="Arial, sans-serif" fill="#783f04">Rearchitect</text>
  <text x="495" y="175" text-anchor="middle" font-size="12" font-family="Arial, sans-serif" fill="#783f04">(Application Restructuring)</text>
  
  <!-- Rearchitect Details -->
  <rect x="435" y="195" width="120" height="90" rx="5" ry="5" fill="#f4b183" stroke="#783f04" stroke-width="1" />
  <text x="495" y="225" text-anchor="middle" font-size="12" font-family="Arial, sans-serif" fill="white">Microservices</text>
  <text x="495" y="245" text-anchor="middle" font-size="12" font-family="Arial, sans-serif" fill="white">Transformation</text>
  <text x="495" y="265" text-anchor="middle" font-size="12" font-family="Arial, sans-serif" fill="white">Strategy</text>
  
  <rect x="435" y="295" width="120" height="40" rx="5" ry="5" fill="#f6c4a2" stroke="#783f04" stroke-width="1" />
  <text x="495" y="320" text-anchor="middle" font-size="11" font-family="Arial, sans-serif" fill="white">Domain-Driven Design</text>
  
  <rect x="435" y="345" width="120" height="40" rx="5" ry="5" fill="#f6c4a2" stroke="#783f04" stroke-width="1" />
  <text x="495" y="370" text-anchor="middle" font-size="11" font-family="Arial, sans-serif" fill="white">API-First Approach</text>
  
  <rect x="435" y="395" width="120" height="40" rx="5" ry="5" fill="#f6c4a2" stroke="#783f04" stroke-width="1" />
  <text x="495" y="420" text-anchor="middle" font-size="11" font-family="Arial, sans-serif" fill="white">Cloud-Native Patterns</text>
  
  <rect x="435" y="445" width="120" height="70" rx="5" ry="5" fill="#f4b183" stroke="#783f04" stroke-width="1" />
  <text x="495" y="470" text-anchor="middle" font-size="11" font-family="Arial, sans-serif" fill="white">AI Analysis:</text>
  <text x="495" y="490" text-anchor="middle" font-size="11" font-family="Arial, sans-serif" fill="white">Service Boundaries</text>
  <text x="495" y="505" text-anchor="middle" font-size="11" font-family="Arial, sans-serif" fill="white">&amp; Domain Models</text>
  
  <!-- Replace -->
  <rect x="590" y="130" width="150" height="400" rx="8" ry="8" fill="#d5d5d5" stroke="#666666" stroke-width="1.5" />
  <text x="665" y="155" text-anchor="middle" font-size="16" font-weight="bold" font-family="Arial, sans-serif" fill="#333">Replace</text>
  <text x="665" y="175" text-anchor="middle" font-size="12" font-family="Arial, sans-serif" fill="#333">(New Implementation)</text>
  
  <!-- Replace Details -->
  <rect x="605" y="195" width="120" height="90" rx="5" ry="5" fill="#8c8c8c" stroke="#333" stroke-width="1" />
  <text x="665" y="225" text-anchor="middle" font-size="12" font-family="Arial, sans-serif" fill="white">Modern</text>
  <text x="665" y="245" text-anchor="middle" font-size="12" font-family="Arial, sans-serif" fill="white">Application</text>
  <text x="665" y="265" text-anchor="middle" font-size="12" font-family="Arial, sans-serif" fill="white">Replacement</text>
  
  <rect x="605" y="295" width="120" height="40" rx="5" ry="5" fill="#a6a6a6" stroke="#333" stroke-width="1" />
  <text x="665" y="320" text-anchor="middle" font-size="11" font-family="Arial, sans-serif" fill="white">COTS / SaaS Solutions</text>
  
  <rect x="605" y="345" width="120" height="40" rx="5" ry="5" fill="#a6a6a6" stroke="#333" stroke-width="1" />
  <text x="665" y="370" text-anchor="middle" font-size="11" font-family="Arial, sans-serif" fill="white">Modern Development</text>
  
  <rect x="605" y="395" width="120" height="40" rx="5" ry="5" fill="#a6a6a6" stroke="#333" stroke-width="1" />
  <text x="665" y="420" text-anchor="middle" font-size="11" font-family="Arial, sans-serif" fill="white">Process Optimization</text>
  
  <rect x="605" y="445" width="120" height="70" rx="5" ry="5" fill="#8c8c8c" stroke="#333" stroke-width="1" />
  <text x="665" y="470" text-anchor="middle" font-size="11" font-family="Arial, sans-serif" fill="white">AI Analysis:</text>
  <text x="665" y="490" text-anchor="middle" font-size="11" font-family="Arial, sans-serif" fill="white">Business Requirements</text>
  <text x="665" y="505" text-anchor="middle" font-size="11" font-family="Arial, sans-serif" fill="white">&amp; Functional Mapping</text>
  
  <!-- Arrows and Timeline -->
  <line x1="155" y1="550" x2="665" y2="550" stroke="#666" stroke-width="3" />
  
  <polygon points="155,550 140,540 140,560" fill="#4285f4" />
  <polygon points="325,550 310,540 310,560 325,550 340,540 340,560" fill="#57bb8a" />
  <polygon points="495,550 480,540 480,560 495,550 510,540 510,560" fill="#f4b183" />
  <polygon points="665,550 650,540 650,560 665,550 680,540 680,560" fill="#8c8c8c" />
  
  <text x="155" y="580" text-anchor="middle" font-size="12" font-family="Arial, sans-serif">Short Term</text>
  <text x="325" y="580" text-anchor="middle" font-size="12" font-family="Arial, sans-serif">Medium Term</text>
  <text x="495" y="580" text-anchor="middle" font-size="12" font-family="Arial, sans-serif">Long Term</text>
  <text x="665" y="580" text-anchor="middle" font-size="12" font-family="Arial, sans-serif">Strategic</text>
  
  <!-- Complexity and Business Value Indicators -->
  <rect x="80" y="100" width="120" height="25" rx="5" ry="5" fill="#eeeeee" stroke="#666" stroke-width="1" />
  <text x="140" y="118" text-anchor="middle" font-size="12" font-family="Arial, sans-serif">Complexity: Low</text>
  
  <rect x="350" y="100" width="130" height="25" rx="5" ry="5" fill="#eeeeee" stroke="#666" stroke-width="1" />
  <text x="415" y="118" text-anchor="middle" font-size="12" font-family="Arial, sans-serif">Complexity: Medium</text>
  
  <rect x="620" y="100" width="120" height="25" rx="5" ry="5" fill="#eeeeee" stroke="#666" stroke-width="1" />
  <text x="680" y="118" text-anchor="middle" font-size="12" font-family="Arial, sans-serif">Complexity: High</text>
</svg> 