<?xml version="1.0" encoding="UTF-8" standalone="no"?>
<svg xmlns="http://www.w3.org/2000/svg" width="800" height="600" viewBox="0 0 800 600">
  <!-- Title -->
  <text x="400" y="40" text-anchor="middle" font-size="20" font-weight="bold" font-family="Arial, sans-serif">Reference Architecture</text>
  <text x="400" y="65" text-anchor="middle" font-size="16" font-family="Arial, sans-serif">Azure AI Foundry for IBM z/OS Modernization</text>
  
  <!-- Main Container -->
  <rect x="50" y="80" width="700" height="490" rx="10" ry="10" fill="#f5f5f5" stroke="#666666" stroke-width="2" />
  
  <!-- Azure Cloud Environment -->
  <rect x="100" y="120" width="600" height="250" rx="8" ry="8" fill="#f0f0ff" stroke="#3333cc" stroke-width="1.5" />
  <text x="400" y="140" text-anchor="middle" font-size="16" font-weight="bold" font-family="Arial, sans-serif" fill="#3333cc">Azure Cloud Environment</text>
  
  <!-- AI Foundry Platform -->
  <rect x="125" y="160" width="250" height="120" rx="5" ry="5" fill="#e6e6fa" stroke="#8961aa" stroke-width="1.5" />
  <text x="250" y="180" text-anchor="middle" font-size="14" font-weight="bold" font-family="Arial, sans-serif" fill="#8961aa">Azure AI Foundry</text>
  
  <!-- AI Components -->
  <rect x="140" y="195" width="100" height="30" rx="3" ry="3" fill="#8961aa" stroke="#5c2d91" stroke-width="1" />
  <text x="190" y="215" text-anchor="middle" font-size="11" font-family="Arial, sans-serif" fill="white">Code Analysis</text>
  
  <rect x="140" y="235" width="100" height="30" rx="3" ry="3" fill="#8961aa" stroke="#5c2d91" stroke-width="1" />
  <text x="190" y="255" text-anchor="middle" font-size="11" font-family="Arial, sans-serif" fill="white">Business Rules</text>
  
  <rect x="255" y="195" width="100" height="30" rx="3" ry="3" fill="#8961aa" stroke="#5c2d91" stroke-width="1" />
  <text x="305" y="215" text-anchor="middle" font-size="11" font-family="Arial, sans-serif" fill="white">Risk Assessment</text>
  
  <rect x="255" y="235" width="100" height="30" rx="3" ry="3" fill="#8961aa" stroke="#5c2d91" stroke-width="1" />
  <text x="305" y="255" text-anchor="middle" font-size="11" font-family="Arial, sans-serif" fill="white">Transformation</text>
  
  <!-- Modern App Services -->
  <rect x="425" y="160" width="250" height="120" rx="5" ry="5" fill="#deeafc" stroke="#3373cc" stroke-width="1.5" />
  <text x="550" y="180" text-anchor="middle" font-size="14" font-weight="bold" font-family="Arial, sans-serif" fill="#3373cc">Azure Application Services</text>
  
  <!-- App Services Components -->
  <rect x="440" y="195" width="100" height="30" rx="3" ry="3" fill="#4285f4" stroke="#2952a3" stroke-width="1" />
  <text x="490" y="215" text-anchor="middle" font-size="11" font-family="Arial, sans-serif" fill="white">App Service</text>
  
  <rect x="440" y="235" width="100" height="30" rx="3" ry="3" fill="#4285f4" stroke="#2952a3" stroke-width="1" />
  <text x="490" y="255" text-anchor="middle" font-size="11" font-family="Arial, sans-serif" fill="white">Functions</text>
  
  <rect x="555" y="195" width="100" height="30" rx="3" ry="3" fill="#4285f4" stroke="#2952a3" stroke-width="1" />
  <text x="605" y="215" text-anchor="middle" font-size="11" font-family="Arial, sans-serif" fill="white">Containers</text>
  
  <rect x="555" y="235" width="100" height="30" rx="3" ry="3" fill="#4285f4" stroke="#2952a3" stroke-width="1" />
  <text x="605" y="255" text-anchor="middle" font-size="11" font-family="Arial, sans-serif" fill="white">Logic Apps</text>
  
  <!-- Integration Layer -->
  <rect x="125" y="300" width="550" height="50" rx="5" ry="5" fill="#d4e8d5" stroke="#38761d" stroke-width="1.5" />
  <text x="400" y="330" text-anchor="middle" font-size="14" font-weight="bold" font-family="Arial, sans-serif" fill="#38761d">Integration Layer</text>
  
  <!-- Integration Components -->
  <rect x="140" y="310" width="80" height="30" rx="3" ry="3" fill="#57bb8a" stroke="#274e13" stroke-width="1" />
  <text x="180" y="330" text-anchor="middle" font-size="11" font-family="Arial, sans-serif" fill="white">API Management</text>
  
  <rect x="235" y="310" width="80" height="30" rx="3" ry="3" fill="#57bb8a" stroke="#274e13" stroke-width="1" />
  <text x="275" y="330" text-anchor="middle" font-size="11" font-family="Arial, sans-serif" fill="white">Service Bus</text>
  
  <rect x="330" y="310" width="80" height="30" rx="3" ry="3" fill="#57bb8a" stroke="#274e13" stroke-width="1" />
  <text x="370" y="330" text-anchor="middle" font-size="11" font-family="Arial, sans-serif" fill="white">Event Grid</text>
  
  <rect x="425" y="310" width="80" height="30" rx="3" ry="3" fill="#57bb8a" stroke="#274e13" stroke-width="1" />
  <text x="465" y="330" text-anchor="middle" font-size="11" font-family="Arial, sans-serif" fill="white">Logic Apps</text>
  
  <rect x="520" y="310" width="140" height="30" rx="3" ry="3" fill="#57bb8a" stroke="#274e13" stroke-width="1" />
  <text x="590" y="330" text-anchor="middle" font-size="11" font-family="Arial, sans-serif" fill="white">Hybrid Connection Manager</text>
  
  <!-- Mainframe Environment -->
  <rect x="100" y="400" width="600" height="150" rx="8" ry="8" fill="#f0f8ff" stroke="#0050C5" stroke-width="1.5" />
  <text x="400" y="420" text-anchor="middle" font-size="16" font-weight="bold" font-family="Arial, sans-serif" fill="#0050C5">IBM z/OS Mainframe Environment</text>
  
  <!-- Mainframe Components -->
  <rect x="125" y="440" width="160" height="90" rx="5" ry="5" fill="#4D81BF" stroke="#0050C5" stroke-width="1.5" />
  <text x="205" y="460" text-anchor="middle" font-size="14" font-weight="bold" font-family="Arial, sans-serif" fill="white">Applications</text>
  
  <rect x="140" y="475" width="60" height="25" rx="3" ry="3" fill="#7fa8d7" stroke="#0050C5" stroke-width="1" />
  <text x="170" y="492" text-anchor="middle" font-size="10" font-family="Arial, sans-serif" fill="white">COBOL</text>
  
  <rect x="210" y="475" width="60" height="25" rx="3" ry="3" fill="#7fa8d7" stroke="#0050C5" stroke-width="1" />
  <text x="240" y="492" text-anchor="middle" font-size="10" font-family="Arial, sans-serif" fill="white">PL/I</text>
  
  <rect x="140" y="505" width="60" height="25" rx="3" ry="3" fill="#7fa8d7" stroke="#0050C5" stroke-width="1" />
  <text x="170" y="522" text-anchor="middle" font-size="10" font-family="Arial, sans-serif" fill="white">Assembler</text>
  
  <rect x="210" y="505" width="60" height="25" rx="3" ry="3" fill="#7fa8d7" stroke="#0050C5" stroke-width="1" />
  <text x="240" y="522" text-anchor="middle" font-size="10" font-family="Arial, sans-serif" fill="white">JCL</text>
  
  <!-- Connectivity -->
  <rect x="320" y="440" width="160" height="90" rx="5" ry="5" fill="#4D81BF" stroke="#0050C5" stroke-width="1.5" />
  <text x="400" y="460" text-anchor="middle" font-size="14" font-weight="bold" font-family="Arial, sans-serif" fill="white">Connectivity</text>
  
  <rect x="335" y="475" width="130" height="25" rx="3" ry="3" fill="#7fa8d7" stroke="#0050C5" stroke-width="1" />
  <text x="400" y="492" text-anchor="middle" font-size="10" font-family="Arial, sans-serif" fill="white">z/OS Connect EE</text>
  
  <rect x="335" y="505" width="130" height="25" rx="3" ry="3" fill="#7fa8d7" stroke="#0050C5" stroke-width="1" />
  <text x="400" y="522" text-anchor="middle" font-size="10" font-family="Arial, sans-serif" fill="white">Enterprise Connectors</text>
  
  <!-- Data  -->
  <rect x="515" y="440" width="160" height="90" rx="5" ry="5" fill="#4D81BF" stroke="#0050C5" stroke-width="1.5" />
  <text x="595" y="460" text-anchor="middle" font-size="14" font-weight="bold" font-family="Arial, sans-serif" fill="white">Data Stores</text>
  
  <rect x="530" y="475" width="60" height="25" rx="3" ry="3" fill="#7fa8d7" stroke="#0050C5" stroke-width="1" />
  <text x="560" y="492" text-anchor="middle" font-size="10" font-family="Arial, sans-serif" fill="white">DB2</text>
  
  <rect x="600" y="475" width="60" height="25" rx="3" ry="3" fill="#7fa8d7" stroke="#0050C5" stroke-width="1" />
  <text x="630" y="492" text-anchor="middle" font-size="10" font-family="Arial, sans-serif" fill="white">VSAM</text>
  
  <rect x="530" y="505" width="60" height="25" rx="3" ry="3" fill="#7fa8d7" stroke="#0050C5" stroke-width="1" />
  <text x="560" y="522" text-anchor="middle" font-size="10" font-family="Arial, sans-serif" fill="white">IMS DB</text>
  
  <rect x="600" y="505" width="60" height="25" rx="3" ry="3" fill="#7fa8d7" stroke="#0050C5" stroke-width="1" />
  <text x="630" y="522" text-anchor="middle" font-size="10" font-family="Arial, sans-serif" fill="white">Files</text>
  
  <!-- Connection Lines -->
  <line x1="250" y1="280" x2="250" y2="300" stroke="#666666" stroke-width="1.5" stroke-dasharray="5,3" />
  <line x1="550" y1="280" x2="550" y2="300" stroke="#666666" stroke-width="1.5" stroke-dasharray="5,3" />
  <line x1="180" y1="350" x2="180" y2="440" stroke="#666666" stroke-width="1.5" stroke-dasharray="5,3" />
  <line x1="400" y1="350" x2="400" y2="440" stroke="#666666" stroke-width="1.5" stroke-dasharray="5,3" />
  <line x1="590" y1="350" x2="590" y2="440" stroke="#666666" stroke-width="1.5" stroke-dasharray="5,3" />
  
  <!-- Legend -->
  <rect x="650" y="90" width="15" height="10" fill="#8961aa" stroke="#000000" stroke-width="0.5" />
  <text x="670" y="99" font-size="10" font-family="Arial, sans-serif">AI Services</text>
  
  <rect x="650" y="105" width="15" height="10" fill="#4285f4" stroke="#000000" stroke-width="0.5" />
  <text x="670" y="114" font-size="10" font-family="Arial, sans-serif">App Services</text>
  
  <rect x="650" y="120" width="15" height="10" fill="#57bb8a" stroke="#000000" stroke-width="0.5" />
  <text x="670" y="129" font-size="10" font-family="Arial, sans-serif">Integration</text>
  
  <rect x="650" y="135" width="15" height="10" fill="#4D81BF" stroke="#000000" stroke-width="0.5" />
  <text x="670" y="144" font-size="10" font-family="Arial, sans-serif">Mainframe</text>
</svg> 