<?xml version="1.0" encoding="UTF-8" standalone="no"?>
<svg width="1000" height="750" xmlns="http://www.w3.org/2000/svg" xmlns:xlink="http://www.w3.org/1999/xlink">
  <style>
    .box {
      fill: #f0f6ff;
      stroke: #0078d4;
      stroke-width: 2;
      rx: 5;
      ry: 5;
    }
    .header-box {
      fill: #0078d4;
      stroke: #0078d4;
      stroke-width: 2;
      rx: 5;
      ry: 5;
    }
    .container {
      fill: #f7faff;
      stroke: #0078d4;
      stroke-width: 2;
      stroke-dasharray: 5,5;
      rx: 8;
      ry: 8;
    }
    .outer-container {
      fill: #ffffff;
      stroke: #0078d4;
      stroke-width: 3;
      rx: 10;
      ry: 10;
    }
    .title {
      font-family: 'Segoe UI', Arial, sans-serif;
      font-size: 18px;
      font-weight: bold;
      fill: white;
      text-anchor: middle;
    }
    .subtitle {
      font-family: 'Segoe UI', Arial, sans-serif;
      font-size: 16px;
      font-weight: bold;
      fill: #0078d4;
      text-anchor: middle;
    }
    .box-title {
      font-family: 'Segoe UI', Arial, sans-serif;
      font-size: 14px;
      font-weight: bold;
      fill: #0078d4;
      text-anchor: middle;
    }
    .arrow {
      stroke: #0078d4;
      stroke-width: 2;
      fill: none;
      marker-end: url(#arrowhead);
    }
  </style>
  
  <defs>
    <marker id="arrowhead" markerWidth="10" markerHeight="7" refX="9" refY="3.5" orient="auto">
      <polygon points="0 0, 10 3.5, 0 7" fill="#0078d4" />
    </marker>
  </defs>
  
  <!-- Azure Cloud (Outer Container) -->
  <rect x="40" y="40" width="920" height="670" class="outer-container" />
  <rect x="40" y="40" width="920" height="50" class="header-box" />
  <text x="500" y="72" class="title">AZURE CLOUD</text>
  
  <!-- Azure AI Foundry Container -->
  <rect x="65" y="110" width="870" height="580" class="container" />
  <rect x="65" y="110" width="870" height="50" class="header-box" />
  <text x="500" y="142" class="title">AZURE AI FOUNDRY</text>
  
  <!-- Intelligence Services Row -->
  <rect x="100" y="180" width="180" height="100" class="box" />
  <text x="190" y="220" class="box-title">Code</text>
  <text x="190" y="245" class="box-title">Intelligence</text>
  
  <rect x="300" y="180" width="180" height="100" class="box" />
  <text x="390" y="220" class="box-title">Translation</text>
  <text x="390" y="245" class="box-title">Services</text>
  
  <rect x="500" y="180" width="180" height="100" class="box" />
  <text x="590" y="220" class="box-title">Risk</text>
  <text x="590" y="245" class="box-title">Intelligence</text>
  
  <rect x="700" y="180" width="180" height="100" class="box" />
  <text x="790" y="220" class="box-title">Operational</text>
  <text x="790" y="245" class="box-title">Intelligence</text>
  
  <!-- Arrows from Intelligence Services to AI Foundation Services -->
  <path d="M 190 280 L 190 330 L 500 330 L 500 350" class="arrow" />
  <path d="M 390 280 L 390 330 L 500 330 L 500 350" class="arrow" />
  <path d="M 590 280 L 590 330 L 500 330 L 500 350" class="arrow" />
  <path d="M 790 280 L 790 330 L 500 330 L 500 350" class="arrow" />
  
  <!-- AI Foundation Services Container -->
  <rect x="100" y="350" width="780" height="190" class="container" />
  <rect x="100" y="350" width="780" height="50" class="header-box" />
  <text x="500" y="382" class="title">AI FOUNDATION SERVICES</text>
  
  <rect x="130" y="420" width="200" height="100" class="box" />
  <text x="230" y="460" class="box-title">Azure OpenAI</text>
  <text x="230" y="485" class="box-title">Service</text>
  
  <rect x="390" y="420" width="200" height="100" class="box" />
  <text x="490" y="460" class="box-title">Azure Cognitive</text>
  <text x="490" y="485" class="box-title">Services</text>
  
  <rect x="650" y="420" width="200" height="100" class="box" />
  <text x="750" y="460" class="box-title">Azure Machine</text>
  <text x="750" y="485" class="box-title">Learning Service</text>
  
  <!-- Integration and Platform Services Row -->
  <rect x="100" y="560" width="380" height="200" class="container" />
  <rect x="100" y="560" width="380" height="50" class="header-box" />
  <text x="290" y="592" class="title">INTEGRATION SERVICES</text>
  
  <rect x="125" y="620" width="100" height="120" class="box" />
  <text x="175" y="670" class="box-title">Azure</text>
  <text x="175" y="695" class="box-title">Functions</text>
  
  <rect x="240" y="620" width="100" height="120" class="box" />
  <text x="290" y="670" class="box-title">Azure</text>
  <text x="290" y="695" class="box-title">Logic Apps</text>
  
  <rect x="355" y="620" width="100" height="120" class="box" />
  <text x="405" y="670" class="box-title">Azure API</text>
  <text x="405" y="695" class="box-title">Management</text>
  
  <rect x="500" y="560" width="380" height="200" class="container" />
  <rect x="500" y="560" width="380" height="50" class="header-box" />
  <text x="690" y="592" class="title">PLATFORM SERVICES</text>
  
  <rect x="525" y="620" width="150" height="120" class="box" />
  <text x="600" y="670" class="box-title">GitHub or</text>
  <text x="600" y="695" class="box-title">Azure DevOps</text>
  
  <rect x="700" y="620" width="150" height="120" class="box" />
  <text x="775" y="670" class="box-title">Azure</text>
  <text x="775" y="695" class="box-title">Monitor</text>
</svg> 