<?xml version="1.0" encoding="UTF-8"?>
<svg xmlns="http://www.w3.org/2000/svg" xmlns:xlink="http://www.w3.org/1999/xlink" width="1000" height="800" viewBox="0 0 1000 800">
  <!-- Title -->
  <text x="500" y="50" text-anchor="middle" font-size="28" font-weight="bold" font-family="Arial, sans-serif">Reference Architecture</text>
  <text x="500" y="85" text-anchor="middle" font-size="20" font-family="Arial, sans-serif">Azure AI Foundry for IBM z/OS Modernization</text>
  
  <!-- Main Container -->
  <rect x="50" y="110" width="900" height="650" rx="15" ry="15" fill="#f5f5f5" stroke="#666666" stroke-width="2.5" />
  
  <!-- Azure Cloud Environment -->
  <rect x="100" y="160" width="800" height="320" rx="12" ry="12" fill="#f0f0ff" stroke="#3333cc" stroke-width="2" />
  <text x="500" y="190" text-anchor="middle" font-size="22" font-weight="bold" font-family="Arial, sans-serif" fill="#3333cc">Azure Cloud Environment</text>
  
  <!-- AI Foundry Platform -->
  <rect x="130" y="220" width="340" height="160" rx="8" ry="8" fill="#e6e6fa" stroke="#8961aa" stroke-width="2" />
  <text x="300" y="245" text-anchor="middle" font-size="18" font-weight="bold" font-family="Arial, sans-serif" fill="#8961aa">Azure AI Foundry</text>
  
  <!-- AI Components -->
  <rect x="150" y="270" width="130" height="40" rx="5" ry="5" fill="#8961aa" stroke="#5c2d91" stroke-width="1.5" />
  <text x="215" y="295" text-anchor="middle" font-size="14" font-family="Arial, sans-serif" fill="white">Code Analysis</text>
  
  <rect x="150" y="320" width="130" height="40" rx="5" ry="5" fill="#8961aa" stroke="#5c2d91" stroke-width="1.5" />
  <text x="215" y="345" text-anchor="middle" font-size="14" font-family="Arial, sans-serif" fill="white">Business Rules</text>
  
  <rect x="320" y="270" width="130" height="40" rx="5" ry="5" fill="#8961aa" stroke="#5c2d91" stroke-width="1.5" />
  <text x="385" y="295" text-anchor="middle" font-size="14" font-family="Arial, sans-serif" fill="white">Risk Assessment</text>
  
  <rect x="320" y="320" width="130" height="40" rx="5" ry="5" fill="#8961aa" stroke="#5c2d91" stroke-width="1.5" />
  <text x="385" y="345" text-anchor="middle" font-size="14" font-family="Arial, sans-serif" fill="white">Transformation</text>
  
  <!-- Modern App Services -->
  <rect x="530" y="220" width="340" height="160" rx="8" ry="8" fill="#deeafc" stroke="#3373cc" stroke-width="2" />
  <text x="700" y="245" text-anchor="middle" font-size="18" font-weight="bold" font-family="Arial, sans-serif" fill="#3373cc">Azure Application Services</text>
  
  <!-- App Services Components -->
  <rect x="550" y="270" width="130" height="40" rx="5" ry="5" fill="#4285f4" stroke="#2952a3" stroke-width="1.5" />
  <text x="615" y="295" text-anchor="middle" font-size="14" font-family="Arial, sans-serif" fill="white">App Service</text>
  
  <rect x="550" y="320" width="130" height="40" rx="5" ry="5" fill="#4285f4" stroke="#2952a3" stroke-width="1.5" />
  <text x="615" y="345" text-anchor="middle" font-size="14" font-family="Arial, sans-serif" fill="white">Functions</text>
  
  <rect x="720" y="270" width="130" height="40" rx="5" ry="5" fill="#4285f4" stroke="#2952a3" stroke-width="1.5" />
  <text x="785" y="295" text-anchor="middle" font-size="14" font-family="Arial, sans-serif" fill="white">Containers</text>
  
  <rect x="720" y="320" width="130" height="40" rx="5" ry="5" fill="#4285f4" stroke="#2952a3" stroke-width="1.5" />
  <text x="785" y="345" text-anchor="middle" font-size="14" font-family="Arial, sans-serif" fill="white">Logic Apps</text>
  
  <!-- Integration Layer -->
  <rect x="130" y="400" width="740" height="60" rx="8" ry="8" fill="#d4e8d5" stroke="#38761d" stroke-width="2" />
  <text x="500" y="438" text-anchor="middle" font-size="18" font-weight="bold" font-family="Arial, sans-serif" fill="#38761d">Integration Layer</text>
  
  <!-- Integration Components -->
  <rect x="150" y="410" width="110" height="40" rx="5" ry="5" fill="#57bb8a" stroke="#274e13" stroke-width="1.5" />
  <text x="205" y="435" text-anchor="middle" font-size="14" font-family="Arial, sans-serif" fill="white">API Management</text>
  
  <rect x="280" y="410" width="110" height="40" rx="5" ry="5" fill="#57bb8a" stroke="#274e13" stroke-width="1.5" />
  <text x="335" y="435" text-anchor="middle" font-size="14" font-family="Arial, sans-serif" fill="white">Service Bus</text>
  
  <rect x="410" y="410" width="110" height="40" rx="5" ry="5" fill="#57bb8a" stroke="#274e13" stroke-width="1.5" />
  <text x="465" y="435" text-anchor="middle" font-size="14" font-family="Arial, sans-serif" fill="white">Event Grid</text>
  
  <rect x="540" y="410" width="110" height="40" rx="5" ry="5" fill="#57bb8a" stroke="#274e13" stroke-width="1.5" />
  <text x="595" y="435" text-anchor="middle" font-size="14" font-family="Arial, sans-serif" fill="white">Logic Apps</text>
  
  <rect x="670" y="410" width="180" height="40" rx="5" ry="5" fill="#57bb8a" stroke="#274e13" stroke-width="1.5" />
  <text x="760" y="435" text-anchor="middle" font-size="14" font-family="Arial, sans-serif" fill="white">Hybrid Connection Manager</text>
  
  <!-- Mainframe Environment -->
  <rect x="100" y="480" width="800" height="250" rx="12" ry="12" fill="#f0f8ff" stroke="#0050C5" stroke-width="2" />
  <text x="500" y="510" text-anchor="middle" font-size="22" font-weight="bold" font-family="Arial, sans-serif" fill="#0050C5">IBM z/OS Mainframe Environment</text>
  
  <!-- Mainframe Components -->
  <rect x="130" y="540" width="230" height="170" rx="8" ry="8" fill="#4D81BF" stroke="#0050C5" stroke-width="2" />
  <text x="245" y="570" text-anchor="middle" font-size="18" font-weight="bold" font-family="Arial, sans-serif" fill="white">Applications</text>
  
  <rect x="150" y="600" width="80" height="40" rx="5" ry="5" fill="#7fa8d7" stroke="#0050C5" stroke-width="1.5" />
  <text x="190" y="625" text-anchor="middle" font-size="14" font-family="Arial, sans-serif" fill="white">COBOL</text>
  
  <rect x="260" y="600" width="80" height="40" rx="5" ry="5" fill="#7fa8d7" stroke="#0050C5" stroke-width="1.5" />
  <text x="300" y="625" text-anchor="middle" font-size="14" font-family="Arial, sans-serif" fill="white">PL/I</text>
  
  <rect x="150" y="650" width="80" height="40" rx="5" ry="5" fill="#7fa8d7" stroke="#0050C5" stroke-width="1.5" />
  <text x="190" y="675" text-anchor="middle" font-size="14" font-family="Arial, sans-serif" fill="white">Assembler</text>
  
  <rect x="260" y="650" width="80" height="40" rx="5" ry="5" fill="#7fa8d7" stroke="#0050C5" stroke-width="1.5" />
  <text x="300" y="675" text-anchor="middle" font-size="14" font-family="Arial, sans-serif" fill="white">JCL</text>
  
  <!-- Connectivity -->
  <rect x="390" y="540" width="230" height="170" rx="8" ry="8" fill="#4D81BF" stroke="#0050C5" stroke-width="2" />
  <text x="505" y="570" text-anchor="middle" font-size="18" font-weight="bold" font-family="Arial, sans-serif" fill="white">Connectivity</text>
  
  <rect x="415" y="600" width="180" height="40" rx="5" ry="5" fill="#7fa8d7" stroke="#0050C5" stroke-width="1.5" />
  <text x="505" y="625" text-anchor="middle" font-size="14" font-family="Arial, sans-serif" fill="white">z/OS Connect EE</text>
  
  <rect x="415" y="650" width="180" height="40" rx="5" ry="5" fill="#7fa8d7" stroke="#0050C5" stroke-width="1.5" />
  <text x="505" y="675" text-anchor="middle" font-size="14" font-family="Arial, sans-serif" fill="white">Enterprise Connectors</text>
  
  <!-- Data  -->
  <rect x="650" y="540" width="230" height="170" rx="8" ry="8" fill="#4D81BF" stroke="#0050C5" stroke-width="2" />
  <text x="765" y="570" text-anchor="middle" font-size="18" font-weight="bold" font-family="Arial, sans-serif" fill="white">Data Stores</text>
  
  <rect x="670" y="600" width="80" height="40" rx="5" ry="5" fill="#7fa8d7" stroke="#0050C5" stroke-width="1.5" />
  <text x="710" y="625" text-anchor="middle" font-size="14" font-family="Arial, sans-serif" fill="white">DB2</text>
  
  <rect x="780" y="600" width="80" height="40" rx="5" ry="5" fill="#7fa8d7" stroke="#0050C5" stroke-width="1.5" />
  <text x="820" y="625" text-anchor="middle" font-size="14" font-family="Arial, sans-serif" fill="white">VSAM</text>
  
  <rect x="670" y="650" width="80" height="40" rx="5" ry="5" fill="#7fa8d7" stroke="#0050C5" stroke-width="1.5" />
  <text x="710" y="675" text-anchor="middle" font-size="14" font-family="Arial, sans-serif" fill="white">IMS DB</text>
  
  <rect x="780" y="650" width="80" height="40" rx="5" ry="5" fill="#7fa8d7" stroke="#0050C5" stroke-width="1.5" />
  <text x="820" y="675" text-anchor="middle" font-size="14" font-family="Arial, sans-serif" fill="white">Files</text>
  
  <!-- Connection Lines -->
  <line x1="300" y1="380" x2="300" y2="400" stroke="#666666" stroke-width="2" stroke-dasharray="6,4" />
  <line x1="700" y1="380" x2="700" y2="400" stroke="#666666" stroke-width="2" stroke-dasharray="6,4" />
  <line x1="205" y1="460" x2="205" y2="540" stroke="#666666" stroke-width="2" stroke-dasharray="6,4" />
  <line x1="505" y1="460" x2="505" y2="540" stroke="#666666" stroke-width="2" stroke-dasharray="6,4" />
  <line x1="760" y1="460" x2="760" y2="540" stroke="#666666" stroke-width="2" stroke-dasharray="6,4" />
  
  <!-- Legend -->
  <rect x="840" y="125" width="20" height="15" fill="#8961aa" stroke="#000000" stroke-width="0.5" />
  <text x="870" y="137" font-size="14" font-family="Arial, sans-serif">AI Services</text>
  
  <rect x="840" y="145" width="20" height="15" fill="#4285f4" stroke="#000000" stroke-width="0.5" />
  <text x="870" y="157" font-size="14" font-family="Arial, sans-serif">App Services</text>
  
  <rect x="840" y="165" width="20" height="15" fill="#57bb8a" stroke="#000000" stroke-width="0.5" />
  <text x="870" y="177" font-size="14" font-family="Arial, sans-serif">Integration</text>
  
  <rect x="840" y="185" width="20" height="15" fill="#4D81BF" stroke="#000000" stroke-width="0.5" />
  <text x="870" y="197" font-size="14" font-family="Arial, sans-serif">Mainframe</text>
</svg> 