<?xml version="1.0" encoding="UTF-8" standalone="no"?>
<svg width="800" height="600" xmlns="http://www.w3.org/2000/svg" xmlns:xlink="http://www.w3.org/1999/xlink">
  <style>
    .box {
      fill: #f0f6ff;
      stroke: #0078d4;
      stroke-width: 2;
      rx: 5;
      ry: 5;
    }
    .header-box {
      fill: #0078d4;
      stroke: #0078d4;
      stroke-width: 2;
      rx: 5;
      ry: 5;
    }
    .container {
      fill: #f7faff;
      stroke: #0078d4;
      stroke-width: 2;
      stroke-dasharray: 5,5;
      rx: 8;
      ry: 8;
    }
    .outer-container {
      fill: #ffffff;
      stroke: #0078d4;
      stroke-width: 3;
      rx: 10;
      ry: 10;
    }
    .title {
      font-family: 'Segoe UI', Arial, sans-serif;
      font-size: 16px;
      font-weight: bold;
      fill: white;
      text-anchor: middle;
    }
    .subtitle {
      font-family: 'Segoe UI', Arial, sans-serif;
      font-size: 14px;
      font-weight: bold;
      fill: #0078d4;
      text-anchor: middle;
    }
    .box-title {
      font-family: 'Segoe UI', Arial, sans-serif;
      font-size: 13px;
      font-weight: bold;
      fill: #0078d4;
      text-anchor: middle;
    }
    .arrow {
      stroke: #0078d4;
      stroke-width: 2;
      fill: none;
      marker-end: url(#arrowhead);
    }
  </style>
  
  <defs>
    <marker id="arrowhead" markerWidth="10" markerHeight="7" refX="9" refY="3.5" orient="auto">
      <polygon points="0 0, 10 3.5, 0 7" fill="#0078d4" />
    </marker>
  </defs>
  
  <!-- Azure Cloud (Outer Container) -->
  <rect x="20" y="20" width="760" height="560" class="outer-container" />
  <rect x="20" y="20" width="760" height="40" class="header-box" />
  <text x="400" y="45" class="title">AZURE CLOUD</text>
  
  <!-- Azure AI Foundry Container -->
  <rect x="40" y="80" width="720" height="480" class="container" />
  <rect x="40" y="80" width="720" height="40" class="header-box" />
  <text x="400" y="105" class="title">AZURE AI FOUNDRY</text>
  
  <!-- Intelligence Services Row -->
  <rect x="70" y="140" width="150" height="80" class="box" />
  <text x="145" y="175" class="box-title">Code</text>
  <text x="145" y="195" class="box-title">Intelligence</text>
  
  <rect x="240" y="140" width="150" height="80" class="box" />
  <text x="315" y="175" class="box-title">Translation</text>
  <text x="315" y="195" class="box-title">Services</text>
  
  <rect x="410" y="140" width="150" height="80" class="box" />
  <text x="485" y="175" class="box-title">Risk</text>
  <text x="485" y="195" class="box-title">Intelligence</text>
  
  <rect x="580" y="140" width="150" height="80" class="box" />
  <text x="655" y="175" class="box-title">Operational</text>
  <text x="655" y="195" class="box-title">Intelligence</text>
  
  <!-- Arrows from Intelligence Services to AI Foundation Services -->
  <path d="M 145 220 L 145 270 L 400 270 L 400 290" class="arrow" />
  <path d="M 315 220 L 315 270 L 400 270 L 400 290" class="arrow" />
  <path d="M 485 220 L 485 270 L 400 270 L 400 290" class="arrow" />
  <path d="M 655 220 L 655 270 L 400 270 L 400 290" class="arrow" />
  
  <!-- AI Foundation Services Container -->
  <rect x="70" y="290" width="660" height="160" class="container" />
  <rect x="70" y="290" width="660" height="40" class="header-box" />
  <text x="400" y="315" class="title">AI FOUNDATION SERVICES</text>
  
  <rect x="100" y="350" width="170" height="80" class="box" />
  <text x="185" y="385" class="box-title">Azure OpenAI</text>
  <text x="185" y="405" class="box-title">Service</text>
  
  <rect x="310" y="350" width="170" height="80" class="box" />
  <text x="395" y="385" class="box-title">Azure Cognitive</text>
  <text x="395" y="405" class="box-title">Services</text>
  
  <rect x="520" y="350" width="170" height="80" class="box" />
  <text x="605" y="385" class="box-title">Azure Machine</text>
  <text x="605" y="405" class="box-title">Learning Service</text>
  
  <!-- Integration and Platform Services Row -->
  <rect x="70" y="470" width="320" height="160" class="container" />
  <rect x="70" y="470" width="320" height="40" class="header-box" />
  <text x="230" y="495" class="title">INTEGRATION SERVICES</text>
  
  <rect x="90" y="520" width="80" height="90" class="box" />
  <text x="130" y="555" class="box-title">Azure</text>
  <text x="130" y="575" class="box-title">Functions</text>
  
  <rect x="190" y="520" width="80" height="90" class="box" />
  <text x="230" y="555" class="box-title">Azure</text>
  <text x="230" y="575" class="box-title">Logic Apps</text>
  
  <rect x="290" y="520" width="80" height="90" class="box" />
  <text x="330" y="555" class="box-title">Azure API</text>
  <text x="330" y="575" class="box-title">Management</text>
  
  <rect x="410" y="470" width="320" height="160" class="container" />
  <rect x="410" y="470" width="320" height="40" class="header-box" />
  <text x="570" y="495" class="title">PLATFORM SERVICES</text>
  
  <rect x="430" y="520" width="120" height="90" class="box" />
  <text x="490" y="555" class="box-title">GitHub or</text>
  <text x="490" y="575" class="box-title">Azure DevOps</text>
  
  <rect x="570" y="520" width="120" height="90" class="box" />
  <text x="630" y="555" class="box-title">Azure</text>
  <text x="630" y="575" class="box-title">Monitor</text>
</svg> 